#!OML:ASF I:\Actors\actors\Patient Classification 1\Patient 1\Session 1\Subject1.ASF
:FULLY-SPECIFIED
:DEGREES
725
root -0.23897 17.511 8.86141 9.20292 -16.1576 -7.83272
lowerback -1.36342 0.289043 10.2395
upperback -13.0162 1.10874 2.164
thorax -13.4452 -0.51387 -3.38578
lowerneck -8.87873 -0.501743 0.142011
upperneck 25.0895 -1.54304 2.71302
head 9.3652 -0.463139 0.739234
rclavicle 5.88403e-014 3.00165e-014
rhumerus -69.3968 -36.931 -31.5108
rradius 14.3073
rwrist 83.8554
rhand 3.08969 -31.1946
rfingers 7.12502
rthumb 28.5463 300.965
lclavicle 5.88403e-014 3.00165e-014
lhumerus -55.5546 24.8587 59.6493
lradius 12.4341
lwrist -415.883
lhand -15.699 -17.3066
lfingers 7.12502
lthumb 10.4905 12.4116
rfemur -2.43309 28.6859 22.6902
rtibia 2.73703
rfoot -10.3777 -16.4302
rtoes -8.87027
lfemur 13.3362 -35.0184 -21.2929
ltibia -5.38934
lfoot -36.2159 54.7538
ltoes 24.4636
726
root -0.2398 17.5101 8.85506 8.986 -15.8588 -7.73462
lowerback -1.40887 0.279139 10.0744
upperback -13.0466 1.07433 2.06972
thorax -13.452 -0.519296 -3.39587
lowerneck -8.74958 -0.623959 0.0069043
upperneck 25.2813 -1.76726 2.98373
head 9.41568 -0.551846 0.833144
rclavicle -1.87852e-014 7.7526e-015
rhumerus -67.736 -35.0485 -35.0966
rradius 14.3318
rwrist 79.5603
rhand 2.62503 -30.4116
rfingers 7.12502
rthumb 28.1022 301.674
lclavicle -1.87852e-014 7.7526e-015
lhumerus -53.9424 23.3725 62.2244
lradius 12.897
lwrist -413.231
lhand -15.4455 -16.3004
lfingers 7.12502
lthumb 10.735 13.4053
rfemur -2.26119 28.5716 22.7175
rtibia 2.84663
rfoot -10.458 -16.6173
rtoes -8.66078
lfemur 13.3868 -34.9656 -21.366
ltibia -5.33003
lfoot -35.5999 54.6397
ltoes 23.9599
727
root -0.239813 17.5088 8.84587 8.75223 -15.3988 -7.68599
lowerback -1.36659 0.223793 9.94254
upperback -13.0534 0.993655 1.99596
thorax -13.4933 -0.549476 -3.39775
lowerneck -8.68599 -0.775936 -0.279414
upperneck 25.3888 -2.0428 3.4108
head 9.45398 -0.661927 1.00125
rclavicle -2.75317e-014 -2.52457e-014
rhumerus -67.9326 -34.6197 -35.2793
rradius 14.1551
rwrist 78.7724
rhand 2.32096 -28.8064
rfingers 7.12502
rthumb 27.8115 303.232
lclavicle -2.75317e-014 -2.52457e-014
lhumerus -52.3278 21.7028 64.9313
lradius 13.6282
lwrist -410.304
lhand -15.1001 -15.0686
lfingers 7.12502
lthumb 11.0682 14.6196
rfemur -1.97614 28.4488 22.8418
rtibia 2.847
rfoot -10.5204 -16.9418
rtoes -8.31136
lfemur 13.4163 -34.9556 -21.3485
ltibia -5.25495
lfoot -34.7503 54.4548
ltoes 23.2141
728
root -0.239553 17.5077 8.83372 8.49615 -14.8702 -7.64987
lowerback -1.24763 0.161633 9.77969
upperback -13.0292 0.910921 1.92689
thorax -13.5436 -0.575744 -3.37805
lowerneck -8.7285 -0.98541 -0.572538
upperneck 25.4909 -2.39522 3.81849
head 9.51476 -0.809325 1.15551
rclavicle 1.61513e-014 2.127e-014
rhumerus -68.7156 -34.7285 -34.4461
rradius 14.0817
rwrist 78.3959
rhand 1.94773 -27.6236
rfingers 7.12502
rthumb 27.4546 304.357
lclavicle 1.61513e-014 2.127e-014
lhumerus -50.8322 20.4796 67.0302
lradius 14.0944
lwrist -406.989
lhand -15.6294 -14.9064
lfingers 7.12502
lthumb 10.5577 14.8085
rfemur -1.60631 28.3266 23.0069
rtibia 2.7678
rfoot -10.5568 -17.3229
rtoes -7.9222
lfemur 13.4968 -35.0556 -21.3612
ltibia -5.18696
lfoot -33.9567 54.3
ltoes 22.5415
729
root -0.242172 17.5069 8.81853 8.25474 -14.3465 -7.59935
lowerback -1.11082 0.12515 9.52358
upperback -12.9943 0.8589 1.86171
thorax -13.5842 -0.575323 -3.306
lowerneck -8.77147 -1.21421 -0.826269
upperneck 25.5836 -2.77003 4.17689
head 9.5747 -0.968396 1.28352
rclavicle 1.93815e-014 1.5704e-014
rhumerus -69.4227 -34.7795 -33.8555
rradius 14.1483
rwrist 77.0451
rhand 1.15611 -27.1472
rfingers 7.12502
rthumb 26.6973 304.716
lclavicle 1.93815e-014 1.5704e-014
lhumerus -49.4247 19.4788 68.855
lradius 14.4543
lwrist -403.093
lhand -16.1319 -15.1088
lfingers 7.12502
lthumb 10.0729 14.6301
rfemur -1.24522 28.2454 23.1559
rtibia 2.66065
rfoot -10.6129 -17.7435
rtoes -7.66225
lfemur 13.6057 -35.2457 -21.4161
ltibia -5.16717
lfoot -33.181 54.2531
ltoes 22.0143
730
root -0.245544 17.506 8.80063 8.06843 -13.7839 -7.58979
lowerback -0.944433 0.125499 9.27788
upperback -12.9887 0.861536 1.78713
thorax -13.6724 -0.553105 -3.25506
lowerneck -8.7644 -1.47213 -1.00991
upperneck 25.6331 -3.19013 4.50565
head 9.61254 -1.14592 1.38419
rclavicle 1.30452e-014 5.66536e-015
rhumerus -70.2994 -34.9991 -33.0072
rradius 14.2017
rwrist 75.5755
rhand -0.012859 -27.579
rfingers 7.12502
rthumb 25.5781 304.118
lclavicle 1.30452e-014 5.66536e-015
lhumerus -48.0787 18.5818 70.5294
lradius 14.9904
lwrist -399.818
lhand -16.7146 -14.8439
lfingers 7.12502
lthumb 9.51072 14.9214
rfemur -0.939444 28.1036 23.3173
rtibia 2.51921
rfoot -10.6759 -18.127
rtoes -7.3043
lfemur 13.6377 -35.4431 -21.3646
ltibia -5.15746
lfoot -32.3677 54.1796
ltoes 21.4853
731
root -0.248369 17.5066 8.78181 7.91756 -13.2038 -7.68341
lowerback -0.730035 0.145675 9.12005
upperback -12.9916 0.905135 1.73917
thorax -13.7998 -0.520777 -3.22733
lowerneck -8.72423 -1.74554 -1.29592
upperneck 25.6306 -3.6352 4.93114
head 9.63252 -1.33542 1.53316
rclavicle 2.02263e-014 1.3418e-014
rhumerus -71.2491 -35.4228 -31.8623
rradius 14.1742
rwrist 74.7077
rhand -1.2294 -28.8673
rfingers 7.12502
rthumb 24.4123 302.668
lclavicle 2.02263e-014 1.3418e-014
lhumerus -46.783 17.8082 72.0436
lradius 15.5089
lwrist -397.268
lhand -18.464 -15.0468
lfingers 7.12502
lthumb 7.8225 14.7885
rfemur -0.660235 27.9132 23.579
rtibia 2.38177
rfoot -10.7258 -18.4654
rtoes -6.6749
lfemur 13.6831 -35.8108 -21.2337
ltibia -5.13544
lfoot -31.9897 54.1394
ltoes 21.2138
732
root -0.253377 17.5094 8.76154 7.78553 -12.6204 -7.75266
lowerback -0.512069 0.125005 8.8441
upperback -12.9934 0.890292 1.7498
thorax -13.9335 -0.498434 -3.0632
lowerneck -8.70313 -1.97609 -1.63134
upperneck 25.6356 -3.9967 5.30395
head 9.65853 -1.49586 1.68135
rclavicle -3.42966e-014 -7.19352e-015
rhumerus -72.0128 -35.8753 -30.7463
rradius 14.1475
rwrist 74.6483
rhand -2.07817 -30.4073
rfingers 7.12502
rthumb 23.5984 301.021
lclavicle -3.42966e-014 -7.19352e-015
lhumerus -45.6355 16.8819 73.6581
lradius 16.148
lwrist -394.512
lhand -20.136 -15.9331
lfingers 7.12502
lthumb 6.20853 13.9559
rfemur -0.412453 27.8355 23.8247
rtibia 2.26698
rfoot -10.7677 -18.9421
rtoes -6.222
lfemur 13.6543 -36.2223 -21.0932
ltibia -5.06382
lfoot -31.661 54.122
ltoes 20.9024
733
root -0.261062 17.5133 8.7404 7.66755 -12.0509 -7.71761
lowerback -0.292385 0.109988 8.42284
upperback -13.0125 0.86829 1.72385
thorax -14.0861 -0.466325 -2.85836
lowerneck -8.69833 -2.1966 -1.83407
upperneck 25.6559 -4.35119 5.6024
head 9.69141 -1.64769 1.78155
rclavicle -1.52754e-014 -4.7435e-014
rhumerus -72.8921 -36.4413 -29.4275
rradius 14.1691
rwrist 75.5645
rhand -2.42031 -31.681
rfingers 7.12502
rthumb 23.2702 299.705
lclavicle -1.52754e-014 -4.7435e-014
lhumerus -44.5606 15.5903 75.43
lradius 16.9369
lwrist -391.307
lhand -21.1059 -16.6173
lfingers 7.12502
lthumb 5.2721 13.2971
rfemur -0.190351 27.8533 23.9533
rtibia 2.12321
rfoot -10.7862 -19.5248
rtoes -6.09107
lfemur 13.4933 -36.3984 -20.923
ltibia -5.00326
lfoot -30.6127 54.0375
ltoes 19.9927
734
root -0.264546 17.5126 8.71537 7.75162 -11.6803 -7.78318
lowerback -0.18643 0.211013 8.19316
upperback -13.039 0.998847 1.6582
thorax -14.163 -0.383952 -2.82042
lowerneck -8.75693 -2.40811 -2.04673
upperneck 25.6079 -4.73187 6.07786
head 9.72048 -1.79292 1.94112
rclavicle -1.94064e-014 1.49089e-016
rhumerus -74.0198 -37.3268 -27.6107
rradius 14.1134
rwrist 77.3687
rhand -2.45515 -32.3254
rfingers 7.12502
rthumb 23.2368 299.057
lclavicle -1.94064e-014 1.49089e-016
lhumerus -43.4024 14.1809 77.209
lradius 17.7514
lwrist -388.097
lhand -21.325 -15.1935
lfingers 7.12502
lthumb 5.06053 14.726
rfemur -0.367509 27.6066 23.9658
rtibia 2.09468
rfoot -10.7361 -19.5997
rtoes -5.96947
lfemur 13.2075 -36.6371 -20.6225
ltibia -5.00594
lfoot -29.9806 54.082
ltoes 19.533
735
root -0.260315 17.5069 8.68588 8.07492 -11.5076 -7.9917
lowerback -0.224164 0.392656 8.22208
upperback -13.077 1.2431 1.60776
thorax -14.1561 -0.273827 -2.92034
lowerneck -8.79033 -2.59314 -2.23624
upperneck 25.3892 -5.05612 6.51814
head 9.68204 -1.91668 2.08888
rclavicle -2.27111e-014 1.07344e-014
rhumerus -74.6607 -38.1631 -26.4008
rradius 13.9855
rwrist 78.9006
rhand -2.27427 -32.71
rfingers 7.12502
rthumb 23.4103 298.694
lclavicle -2.27111e-014 1.07344e-014
lhumerus -42.3112 13.3745 78.445
lradius 18.4349
lwrist -385.991
lhand -20.8329 -12.8504
lfingers 7.12502
lthumb 5.5357 17.0572
rfemur -1.01735 27.0501 23.8792
rtibia 2.23911
rfoot -10.6374 -19.1299
rtoes -6.00427
lfemur 12.7564 -37.1141 -20.2013
ltibia -4.96949
lfoot -30.4698 54.3092
ltoes 20.0402
736
root -0.258866 17.5066 8.66221 8.21403 -11.2755 -8.11632
lowerback -0.131534 0.522941 8.15378
upperback -13.0991 1.42492 1.56303
thorax -14.2179 -0.183784 -2.95457
lowerneck -8.62283 -2.76962 -2.36368
upperneck 25.0377 -5.32039 6.77048
head 9.54958 -2.03432 2.16747
rclavicle 3.33958e-014 -2.64384e-014
rhumerus -74.3092 -38.4464 -26.8016
rradius 13.9204
rwrist 79.1225
rhand -1.91486 -33.0755
rfingers 7.12502
rthumb 23.7551 298.373
lclavicle 3.33958e-014 -2.64384e-014
lhumerus -41.4786 13.1202 79.1005
lradius 18.8502
lwrist -384.935
lhand -20.5594 -13.4358
lfingers 7.12502
lthumb 5.79972 16.4648
rfemur -1.2997 26.7369 23.8888
rtibia 2.25305
rfoot -10.5776 -18.9953
rtoes -6.03889
lfemur 12.5122 -37.5622 -19.9704
ltibia -4.92232
lfoot -30.9064 54.4707
ltoes 20.4537
737
root -0.264238 17.5115 8.64071 8.14668 -10.9095 -8.11049
lowerback 0.109136 0.573078 7.8752
upperback -13.086 1.49545 1.51162
thorax -14.3406 -0.123968 -2.87017
lowerneck -8.45395 -2.92126 -2.51446
upperneck 24.7202 -5.54869 7.03242
head 9.42952 -2.13648 2.25791
rclavicle -1.7344e-014 -5.50634e-014
rhumerus -73.596 -38.5 -27.8124
rradius 13.9295
rwrist 78.6998
rhand -1.48379 -33.0415
rfingers 7.12502
rthumb 24.1684 298.461
lclavicle -1.7344e-014 -5.50634e-014
lhumerus -40.7584 12.5636 79.8747
lradius 19.2548
lwrist -383.712
lhand -20.9094 -15.6923
lfingers 7.12502
lthumb 5.46178 14.2173
rfemur -1.19706 26.6957 23.9677
rtibia 2.13422
rfoot -10.5606 -19.2878
rtoes -5.81221
lfemur 12.3868 -37.782 -19.8476
ltibia -4.88695
lfoot -30.5131 54.4563
ltoes 20.1794
738
root -0.270938 17.5143 8.61576 8.10346 -10.4796 -8.12567
lowerback 0.35387 0.58059 7.6146
upperback -13.0615 1.50734 1.45909
thorax -14.4599 -0.0939194 -2.79037
lowerneck -8.44176 -3.04642 -2.71625
upperneck 24.5134 -5.77146 7.42975
head 9.38541 -2.22126 2.40397
rclavicle -1.0635e-014 3.33958e-014
rhumerus -72.7158 -38.5322 -29.0757
rradius 13.953
rwrist 77.9618
rhand -1.12199 -32.8206
rfingers 7.12502
rthumb 24.5153 298.729
lclavicle -1.0635e-014 3.33958e-014
lhumerus -40.0924 11.7259 80.7728
lradius 19.7502
lwrist -382.376
lhand -21.2448 -16.6049
lfingers 7.12502
lthumb 5.13801 13.3128
rfemur -1.14929 26.6252 24.0627
rtibia 2.0475
rfoot -10.5397 -19.6071
rtoes -5.58624
lfemur 12.1264 -37.792 -19.5552
ltibia -4.85807
lfoot -29.5925 54.3163
ltoes 19.4377
739
root -0.277002 17.516 8.59278 8.06843 -10.0693 -8.13744
lowerback 0.585958 0.577613 7.38509
upperback -13.0536 1.5046 1.4019
thorax -14.5947 -0.0758824 -2.73075
lowerneck -8.49049 -3.1676 -2.96519
upperneck 24.4645 -6.00166 7.86082
head 9.41309 -2.30608 2.57011
rclavicle 3.27995e-015 -2.18663e-015
rhumerus -71.4932 -38.3409 -30.895
rradius 13.988
rwrist 76.6901
rhand -0.957442 -32.6663
rfingers 7.12502
rthumb 24.673 298.904
lclavicle 3.27995e-015 -2.18663e-015
lhumerus -39.5956 10.9915 81.5087
lradius 20.167
lwrist -381.37
lhand -21.3492 -16.6966
lfingers 7.12502
lthumb 5.03715 13.2235
rfemur -1.08652 26.5446 24.1406
rtibia 1.92133
rfoot -10.5227 -19.8939
rtoes -5.21666
lfemur 11.8985 -37.812 -19.2945
ltibia -4.84936
lfoot -28.8291 54.1669
ltoes 18.7434
